name kv05_filtered_grf.mot
datacolumns 37
datarows 14
range 0.537000 0.543500
endheader
time	1_ground_force_vx	1_ground_force_vy	1_ground_force_vz	1_ground_force_px	1_ground_force_py	1_ground_force_pz	1_ground_torque_x	1_ground_torque_y	1_ground_torque_z	2_ground_force_vx	2_ground_force_vy	2_ground_force_vz	2_ground_force_px	2_ground_force_py	2_ground_force_pz	2_ground_torque_x	2_ground_torque_y	2_ground_torque_z	3_ground_force_vx	3_ground_force_vy	3_ground_force_vz	3_ground_force_px	3_ground_force_py	3_ground_force_pz	3_ground_torque_x	3_ground_torque_y	3_ground_torque_z	4_ground_force_vx	4_ground_force_vy	4_ground_force_vz	4_ground_force_px	4_ground_force_py	4_ground_force_pz	4_ground_torque_x	4_ground_torque_y	4_ground_torque_z
            0.537000	           -0.000000	           -0.000000	           -0.000000	            0.130560	            0.000000	            0.250779	           -0.000000	            0.000000	            0.000000	            0.000000	            0.000000	           -0.000000	           -0.241881	            0.000000	            0.344507	           -0.000000	            0.000000	           -0.000000	            0.295215	           -0.797866	            0.281980	            0.386593	            0.970869	            1.074018	           -0.010171	            0.008358	           -0.070482	            0.324185	           -0.299740	            0.038981	           -0.368983	            0.969722	            1.107734	            0.002698	           -0.014307	            0.046176
            0.537500	           -0.000000	           -0.000000	           -0.000000	            0.130560	            0.000000	            0.250779	           -0.000000	            0.000000	            0.000000	           -0.000000	            0.000000	           -0.000000	           -0.241881	            0.000000	            0.344507	           -0.000000	            0.000000	           -0.000000	            0.248725	           -0.808825	            0.283595	            0.386578	            0.970867	            1.074014	           -0.010053	            0.008902	           -0.071116	            0.336801	           -0.323866	            0.034910	           -0.368983	            0.969727	            1.107732	            0.002896	           -0.014370	            0.046544
            0.538000	           -0.000000	           -0.000000	           -0.000000	            0.130560	            0.000000	            0.250779	           -0.000000	            0.000000	            0.000000	           -0.000000	            0.000000	           -0.000000	           -0.241881	            0.000000	            0.344507	           -0.000000	            0.000000	           -0.000000	            0.202158	           -0.818161	            0.285099	            0.386562	            0.970861	            1.074009	           -0.009922	            0.009460	           -0.071650	            0.349368	           -0.347347	            0.030466	           -0.368984	            0.969731	            1.107730	            0.003105	           -0.014429	            0.046881
            0.538500	           -0.000000	           -0.000000	           -0.000000	            0.130560	            0.000000	            0.250779	           -0.000000	            0.000000	            0.000000	           -0.000000	            0.000000	           -0.000000	           -0.241881	            0.000000	            0.344507	           -0.000000	            0.000000	           -0.000000	            0.155624	           -0.825877	            0.286495	            0.386546	            0.970856	            1.074005	           -0.009778	            0.010032	           -0.072082	            0.361862	           -0.370130	            0.025654	           -0.368985	            0.969736	            1.107728	            0.003325	           -0.014484	            0.047188
            0.539000	           -0.000000	           -0.000000	           -0.000000	            0.130560	            0.000000	            0.250779	           -0.000000	            0.000000	            0.000000	           -0.000000	            0.000000	           -0.000000	           -0.241881	            0.000000	            0.344507	           -0.000000	            0.000000	           -0.000000	            0.109234	           -0.831978	            0.287788	            0.386531	            0.970850	            1.074000	           -0.009621	            0.010616	           -0.072414	            0.374259	           -0.392161	            0.020479	           -0.368986	            0.969740	            1.107726	            0.003556	           -0.014533	            0.047462
            0.539500	           -0.000000	           -0.000000	           -0.000000	            0.130560	            0.000000	            0.250779	           -0.000000	            0.000000	            0.000000	           -0.000000	            0.000000	           -0.000000	           -0.241881	            0.000000	            0.344507	           -0.000000	            0.000000	           -0.000000	            0.063099	           -0.836468	            0.288982	            0.386515	            0.970844	            1.073996	           -0.009451	            0.011210	           -0.072643	            0.386536	           -0.413387	            0.014950	           -0.368987	            0.969744	            1.107724	            0.003797	           -0.014577	            0.047705
            0.540000	           -0.000000	           -0.000000	           -0.000000	            0.130560	            0.000000	            0.250779	           -0.000000	           -0.000000	            0.000000	           -0.000000	            0.000000	           -0.000000	           -0.241881	            0.000000	            0.344507	           -0.000000	            0.000000	           -0.000000	            0.017324	           -0.839356	            0.290082	            0.386499	            0.970838	            1.073991	           -0.009269	            0.011812	           -0.072769	            0.398666	           -0.433758	            0.009073	           -0.368988	            0.969748	            1.107722	            0.004048	           -0.014615	            0.047915
            0.540500	           -0.000000	           -0.000000	           -0.000000	            0.130560	            0.000000	            0.250779	           -0.000000	           -0.000000	            0.000000	           -0.000000	            0.000000	            0.000000	           -0.241881	            0.000000	            0.344507	           -0.000000	            0.000000	           -0.000000	           -0.027982	           -0.840648	            0.291100	            0.386483	            0.970829	            1.073987	           -0.009077	            0.012421	           -0.072792	            0.410625	           -0.453224	            0.002854	           -0.368989	            0.969751	            1.107721	            0.004308	           -0.014648	            0.048092
            0.541000	           -0.000000	           -0.000000	           -0.000000	            0.130560	            0.000000	            0.250779	           -0.000000	           -0.000000	            0.000000	           -0.000000	            0.000000	            0.000000	           -0.241881	            0.000000	            0.344507	            0.000000	            0.000000	           -0.000000	           -0.072723	           -0.840358	            0.292038	            0.386468	            0.970820	            1.073983	           -0.008873	            0.013035	           -0.072713	            0.422387	           -0.471737	           -0.003695	           -0.368991	            0.969754	            1.107719	            0.004577	           -0.014673	            0.048236
            0.541500	           -0.000000	           -0.000000	           -0.000000	            0.130560	            0.000000	            0.250779	           -0.000000	           -0.000000	            0.000000	           -0.000000	            0.000000	            0.000000	           -0.241881	            0.000000	            0.344507	            0.000000	            0.000000	           -0.000000	           -0.116803	           -0.838498	            0.292901	            0.386452	            0.970810	            1.073978	           -0.008657	            0.013652	           -0.072530	            0.433925	           -0.489252	           -0.010564	           -0.368992	            0.969757	            1.107718	            0.004854	           -0.014691	            0.048347
            0.542000	           -0.000000	           -0.000000	           -0.000000	            0.130560	            0.000000	            0.250779	           -0.000000	           -0.000000	            0.000000	           -0.000000	            0.000000	            0.000000	           -0.241881	            0.000000	            0.344507	            0.000000	            0.000000	           -0.000000	           -0.160130	           -0.835083	            0.293697	            0.386436	            0.970801	            1.073974	           -0.008430	            0.014270	           -0.072245	            0.445215	           -0.505723	           -0.017742	           -0.368993	            0.969760	            1.107716	            0.005138	           -0.014701	            0.048424
            0.542500	           -0.000000	           -0.000000	           -0.000000	            0.130560	            0.000000	            0.250779	           -0.000000	           -0.000000	            0.000000	           -0.000000	            0.000000	            0.000000	           -0.241881	            0.000000	            0.344507	            0.000000	            0.000000	           -0.000000	           -0.202615	           -0.830128	            0.294433	            0.386420	            0.970792	            1.073970	           -0.008192	            0.014889	           -0.071858	            0.456229	           -0.521109	           -0.025217	           -0.368995	            0.969762	            1.107715	            0.005429	           -0.014703	            0.048467
            0.543000	           -0.000000	           -0.000000	           -0.000000	            0.130560	            0.000000	            0.250779	           -0.000000	           -0.000000	            0.000000	           -0.000000	            0.000000	            0.000000	           -0.241881	            0.000000	            0.344507	            0.000000	            0.000000	           -0.000000	           -0.244168	           -0.823649	            0.295127	            0.386406	            0.970780	            1.073966	           -0.007945	            0.015504	           -0.071368	            0.466943	           -0.535369	           -0.032980	           -0.368997	            0.969764	            1.107713	            0.005726	           -0.014697	            0.048476
            0.543500	            0.000000	           -0.000000	           -0.000000	            0.130560	            0.000000	            0.250779	           -0.000000	           -0.000000	            0.000000	           -0.000000	            0.000000	            0.000000	           -0.241881	            0.000000	            0.344507	            0.000000	            0.000000	           -0.000000	           -0.284715	           -0.815667	            0.295776	            0.386391	            0.970767	            1.073963	           -0.007687	            0.016116	           -0.070778	            0.477330	           -0.548464	           -0.041014	           -0.368999	            0.969765	            1.107712	            0.006029	           -0.014681	            0.048451
